<svg xmlns="http://www.w3.org/2000/svg" xmlns:xlink="http://www.w3.org/1999/xlink" width="40" zoomAndPan="magnify" viewBox="0 0 30 30.000001" height="40" preserveAspectRatio="xMidYMid meet" version="1.0"><defs><clipPath id="id1"><path d="M 10.894531 7.328125 L 18.875 7.328125 L 18.875 21.84375 L 10.894531 21.84375 Z M 10.894531 7.328125 " clip-rule="nonzero"/></clipPath></defs><g clip-path="url(#id1)"><path fill="rgb(29.40979%, 74.508667%, 94.898987%)" d="M 14.886719 17.222656 L 11.9375 20.730469 Z M 11.597656 21.667969 C 11.707031 21.710938 11.824219 21.730469 11.9375 21.730469 C 12.207031 21.730469 12.472656 21.609375 12.660156 21.386719 L 14.882812 18.746094 L 17.105469 21.417969 C 17.292969 21.644531 17.558594 21.765625 17.832031 21.765625 C 17.945312 21.765625 18.058594 21.746094 18.167969 21.703125 C 18.542969 21.558594 18.792969 21.183594 18.792969 20.765625 L 18.792969 8.402344 C 18.792969 7.851562 18.363281 7.402344 17.832031 7.402344 L 11.9375 7.402344 C 11.40625 7.402344 10.976562 7.851562 10.976562 8.402344 L 10.976562 20.730469 C 10.976562 21.148438 11.222656 21.519531 11.597656 21.667969 " fill-opacity="1" fill-rule="nonzero"/><path fill="rgb(29.40979%, 74.508667%, 94.898987%)" d="M 17.832031 7.328125 L 11.9375 7.328125 C 11.367188 7.328125 10.902344 7.808594 10.902344 8.402344 L 10.902344 20.730469 C 10.902344 21.175781 11.171875 21.582031 11.574219 21.738281 C 11.691406 21.785156 11.8125 21.808594 11.9375 21.808594 C 12.234375 21.808594 12.519531 21.671875 12.714844 21.4375 L 14.878906 18.863281 L 17.050781 21.46875 C 17.246094 21.707031 17.53125 21.84375 17.832031 21.84375 C 17.957031 21.84375 18.078125 21.820312 18.195312 21.773438 C 18.597656 21.617188 18.867188 21.214844 18.867188 20.765625 L 18.867188 8.402344 C 18.867188 7.808594 18.402344 7.328125 17.832031 7.328125 Z M 11.9375 20.730469 L 14.886719 17.222656 L 11.9375 20.730469 M 17.832031 7.402344 C 18.363281 7.402344 18.792969 7.851562 18.792969 8.402344 L 18.792969 20.765625 C 18.792969 21.183594 18.542969 21.558594 18.167969 21.703125 C 18.058594 21.746094 17.945312 21.765625 17.832031 21.765625 C 17.558594 21.765625 17.292969 21.644531 17.105469 21.417969 L 14.882812 18.746094 L 12.660156 21.386719 C 12.472656 21.609375 12.207031 21.730469 11.9375 21.730469 C 11.824219 21.730469 11.707031 21.710938 11.597656 21.667969 C 11.222656 21.519531 10.976562 21.148438 10.976562 20.730469 L 10.976562 8.402344 C 10.976562 7.851562 11.40625 7.402344 11.9375 7.402344 L 17.832031 7.402344 " fill-opacity="1" fill-rule="nonzero"/></g><path fill="rgb(100%, 100%, 100%)" d="M 17.832031 8.402344 L 11.9375 8.402344 L 11.9375 20.730469 L 14.886719 17.222656 L 17.832031 20.765625 L 17.832031 8.402344 " fill-opacity="1" fill-rule="evenodd"/></svg>