<svg xmlns="http://www.w3.org/2000/svg" xmlns:xlink="http://www.w3.org/1999/xlink" width="1080" zoomAndPan="magnify" viewBox="0 0 810 1439.999935" height="1920" preserveAspectRatio="xMidYMid meet" version="1.0"><defs><clipPath id="id1"><path d="M 585 0 L 810 0 L 810 294 L 585 294 Z M 585 0 " clip-rule="nonzero"/></clipPath><clipPath id="id2"><path d="M 619.863281 -153.070312 L 998.5 -56.527344 L 902.699219 319.199219 L 524.0625 222.65625 Z M 619.863281 -153.070312 " clip-rule="nonzero"/></clipPath><clipPath id="id3"><path d="M 619.863281 -153.070312 L 1053.007812 -42.628906 L 921.8125 471.90625 L 488.667969 361.464844 Z M 619.863281 -153.070312 " clip-rule="nonzero"/></clipPath><clipPath id="id4"><path d="M 486 0 L 810 0 L 810 321 L 486 321 Z M 486 0 " clip-rule="nonzero"/></clipPath><clipPath id="id5"><path d="M 516.25 -40.847656 L 957.285156 198.40625 L 873.957031 352.011719 L 432.921875 112.753906 Z M 516.25 -40.847656 " clip-rule="nonzero"/></clipPath><clipPath id="id6"><path d="M 595.984375 -187.828125 L 1037.019531 51.429688 L 873.9375 352.042969 L 432.90625 112.789062 Z M 595.984375 -187.828125 " clip-rule="nonzero"/></clipPath><clipPath id="id7"><path d="M 0 1097 L 188 1097 L 188 1440 L 0 1440 Z M 0 1097 " clip-rule="nonzero"/></clipPath><clipPath id="id8"><path d="M 118.15625 1675.898438 L -345.390625 1508.792969 L -177.265625 1042.421875 L 286.285156 1209.527344 Z M 118.15625 1675.898438 " clip-rule="nonzero"/></clipPath><clipPath id="id9"><path d="M -345.523438 1508.742188 L 118.027344 1675.851562 L 286.152344 1209.480469 L -177.398438 1042.375 Z M -345.523438 1508.742188 " clip-rule="nonzero"/></clipPath></defs><rect x="-81" width="972" fill="#ffffff" y="-143.999994" height="1727.999922" fill-opacity="1"/><rect x="-81" width="972" fill="#1c1c25" y="-143.999994" height="1727.999922" fill-opacity="1"/><rect x="-81" width="972" fill="#ffffff" y="-143.999994" height="1727.999922" fill-opacity="1"/><rect x="-81" width="972" fill="#1c1c25" y="-143.999994" height="1727.999922" fill-opacity="1"/><g clip-path="url(#id1)"><g clip-path="url(#id2)"><g clip-path="url(#id3)"><path fill="#9cd6f6" d="M 907.21875 116.539062 C 874.667969 91.671875 851.132812 55.257812 841.808594 15.355469 C 833.652344 -19.550781 835.089844 -59.03125 812.410156 -86.796875 C 799.507812 -102.601562 780.246094 -112.179688 760.441406 -117.066406 C 697.074219 -132.707031 625.027344 -98.851562 596.585938 -40.074219 C 585.058594 -16.257812 580.589844 12.914062 592.933594 36.3125 C 607.257812 63.457031 639.015625 75.230469 664.050781 92.976562 C 692.164062 112.90625 713.28125 142.527344 722.957031 175.617188 C 800.589844 440.988281 995.214844 183.757812 907.21875 116.539062 " fill-opacity="1" fill-rule="nonzero"/></g></g></g><g clip-path="url(#id4)"><g clip-path="url(#id5)"><g clip-path="url(#id6)"><path fill="#ffffff" d="M 611.324219 106.589844 C 592.3125 96.816406 572.394531 88.710938 552.007812 81.972656 C 539.925781 77.851562 527.621094 74.144531 516.914062 66.988281 C 510.15625 62.511719 503.625 57.617188 497.644531 52.210938 C 483.003906 38.867188 484.335938 17.984375 493.929688 4.285156 C 505.75 -12.527344 522.003906 -22.074219 541.609375 -26.835938 C 548.671875 -28.402344 555.738281 -29.972656 562.878906 -30.691406 C 589.457031 -34.367188 615.765625 -39.539062 641.597656 -46.320312 C 660.234375 -50.796875 678.757812 -55.058594 697.816406 -56.332031 C 713.144531 -57.199219 728.289062 -55.734375 743.433594 -54.273438 C 766.332031 -52.65625 788.867188 -49.878906 811.371094 -46.042969 C 831.109375 -42.089844 850.46875 -36.449219 869.25 -29.230469 C 884.992188 -23.390625 900.410156 -17.457031 916.039062 -11.410156 C 929.582031 -6.492188 941.992188 0.507812 953.496094 9.179688 C 956.289062 11.503906 958.191406 14.96875 961.097656 17.085938 C 973.453125 25.679688 984.601562 35.507812 995.863281 45.125 C 996.792969 45.902344 997.820312 46.996094 998.75 47.773438 C 1009.957031 58.984375 1009.886719 77.039062 998.789062 88.035156 C 998.355469 88.339844 998.128906 88.757812 997.691406 89.0625 C 992.738281 94.207031 986.058594 97.0625 978.820312 97.457031 C 970.84375 97.722656 962.789062 97.132812 954.617188 96.75 C 945.390625 96.335938 936.0625 95.597656 926.835938 95.183594 C 923.535156 95.285156 920.125 95.59375 917.019531 96.339844 C 906.207031 98.847656 899.496094 105.738281 895.445312 115.695312 C 889.226562 130.144531 887.941406 146.460938 892.109375 161.6875 C 896.351562 177.761719 901.242188 193.648438 905.488281 209.726562 C 908.890625 222.375 911.972656 235.121094 914.089844 248.152344 C 916.414062 261.296875 914.363281 275.035156 908.121094 287.042969 C 899.671875 304.605469 883.121094 316.691406 863.683594 319.652344 C 847.335938 322.398438 831.167969 319.835938 815.5 314.847656 C 791.226562 306.8125 772.085938 291.296875 755.0625 272.878906 C 742.980469 259.300781 732.632812 244.507812 723.917969 228.707031 C 710.574219 204.996094 694.398438 183.523438 678.332031 161.847656 C 661.449219 139.183594 639.597656 122.199219 614.644531 108.933594 Z M 799.125 305.695312 C 818.121094 316 842.179688 320.949219 862.144531 318.007812 C 882.113281 315.066406 896.921875 304.195312 906.433594 286.667969 C 911.203125 277.375 913.359375 266.929688 913.179688 256.300781 C 912.832031 244.496094 910.773438 232.847656 907.222656 221.46875 C 902.097656 203.027344 896.652344 184.679688 891.644531 166.027344 C 887.113281 148.984375 886.710938 132.292969 893.855469 115.640625 C 899.621094 102.023438 909.113281 94.480469 923.703125 93.484375 C 927.4375 93.078125 931.148438 93.203125 934.863281 93.328125 C 943.773438 93.839844 952.871094 94.992188 961.777344 95.503906 C 968.5625 95.945312 975.367188 95.855469 981.980469 95.121094 C 991.792969 93.960938 998.675781 88.242188 1002.898438 79.460938 C 1008.480469 68.175781 1006.824219 57.285156 997.652344 48.796875 C 990.339844 41.859375 982.59375 35.226562 974.730469 28.800781 C 968.523438 23.8125 962.085938 19.242188 955.765625 14.460938 C 953.695312 12.800781 952.722656 10.109375 950.539062 8.65625 C 939.851562 0.96875 928.164062 -5.371094 915.777344 -9.929688 C 900.148438 -15.980469 884.519531 -22.027344 868.988281 -27.753906 C 851.574219 -34.5 833.371094 -39.78125 815.015625 -43.796875 C 790.9375 -48.21875 766.503906 -51.480469 742.113281 -52.828125 C 727.800781 -53.839844 713.285156 -54.964844 699.035156 -54.59375 C 680.863281 -54.457031 663.609375 -50.042969 646.261719 -45.953125 C 621.089844 -39.890625 596.128906 -33.71875 570.515625 -30.328125 C 560.914062 -29.054688 551.402344 -27.460938 541.875 -25.339844 C 522.597656 -20.675781 506.550781 -11.015625 495.164062 5.496094 C 485.683594 18.984375 486.257812 36.851562 496.59375 48.671875 C 499.253906 51.734375 502.140625 54.382812 505.351562 56.933594 C 518.28125 67.457031 533.359375 74.019531 549.234375 79.117188 C 571.101562 86.121094 592.269531 94.902344 612.648438 105.148438 C 637.503906 118.089844 659.808594 134.242188 677.011719 156.808594 C 689.636719 173.378906 701.917969 190.574219 713.671875 207.753906 C 722.6875 221.015625 730.074219 235.285156 738.972656 248.757812 C 754.230469 272.425781 774.722656 291.917969 799.125 305.695312 Z M 799.125 305.695312 " fill-opacity="1" fill-rule="nonzero"/></g></g></g><g clip-path="url(#id7)"><g clip-path="url(#id8)"><g clip-path="url(#id9)"><path fill="#9cd6f6" d="M -287.894531 1349.210938 C -300.882812 1384.9375 -299.707031 1420.933594 -290.574219 1457.175781 C -285.027344 1479.1875 -276.558594 1499.785156 -261.417969 1517.09375 C -233.734375 1548.746094 -198.527344 1561.730469 -156.964844 1559.210938 C -132.746094 1557.742188 -109.289062 1552.410156 -85.875 1546.523438 C -67.707031 1541.957031 -49.527344 1537.371094 -31.191406 1533.558594 C -3.777344 1527.859375 23.828125 1530.390625 51.398438 1532.742188 C 68.882812 1534.230469 86.441406 1534.980469 103.660156 1530.8125 C 131.589844 1524.039062 155.164062 1509.765625 172.597656 1486.84375 C 198.40625 1452.917969 189.453125 1408.007812 152.300781 1387.152344 C 137.542969 1378.863281 121.121094 1373.523438 105.417969 1366.933594 C 88.773438 1359.949219 74.15625 1350.3125 61.898438 1336.792969 C 44.824219 1317.953125 47.5625 1297.53125 59.449219 1279.933594 C 65.367188 1271.175781 72.292969 1262.953125 77.152344 1253.648438 C 89.578125 1229.835938 88.921875 1205.101562 79.328125 1180.527344 C 72.0625 1161.902344 59.355469 1147.117188 43.964844 1134.699219 C 21.808594 1116.824219 -3.464844 1105.09375 -31.300781 1099.523438 C -64.492188 1092.882812 -93.847656 1103.078125 -120.667969 1122.148438 C -142.398438 1137.601562 -160.519531 1156.859375 -176.285156 1178.132812 C -203.414062 1214.738281 -230.09375 1251.683594 -256.355469 1288.917969 C -264.191406 1300.019531 -270.269531 1312.410156 -276.640625 1324.484375 C -280.863281 1332.476562 -284.175781 1340.949219 -287.894531 1349.210938 " fill-opacity="1" fill-rule="nonzero"/></g></g></g><path fill="#fffcf5" d="M 4.816406 1436.8125 C -2.382812 1430.953125 -9.316406 1425.355469 -16.515625 1419.761719 C -25.046875 1413.101562 -29.578125 1402.710938 -29.046875 1392.054688 C -29.046875 1384.59375 -27.714844 1377.132812 -25.3125 1370.207031 C -20.515625 1355.550781 -13.582031 1341.699219 -5.046875 1328.644531 C 4.015625 1315.054688 12.28125 1300.933594 22.679688 1288.679688 C 36.8125 1271.894531 52.277344 1256.441406 67.476562 1240.988281 C 72.542969 1236.191406 78.140625 1232.195312 84.542969 1229.53125 C 94.671875 1224.46875 106.9375 1228.464844 112.003906 1238.324219 C 114.136719 1242.585938 114.671875 1247.117188 113.871094 1251.910156 C 112.804688 1257.507812 111.472656 1262.835938 110.136719 1268.429688 C 110.136719 1268.429688 110.671875 1268.429688 110.671875 1268.429688 C 129.335938 1258.304688 148 1248.449219 166.398438 1238.324219 C 168 1237.257812 169.332031 1236.191406 170.664062 1234.59375 C 188.796875 1210.882812 206.660156 1186.902344 225.058594 1163.191406 C 229.058594 1158.128906 233.324219 1153.332031 237.589844 1148.804688 C 244.523438 1141.34375 251.457031 1134.148438 258.65625 1126.957031 C 262.65625 1122.960938 265.320312 1122.960938 268.519531 1127.753906 C 273.320312 1134.683594 274.921875 1141.875 271.1875 1149.601562 C 269.855469 1152.800781 267.988281 1155.996094 265.855469 1158.925781 C 253.855469 1174.113281 241.589844 1188.765625 225.859375 1200.222656 C 207.996094 1213.011719 189.863281 1225.269531 171.730469 1237.789062 C 170.933594 1238.324219 170.132812 1239.121094 169.332031 1239.921875 C 157.332031 1257.507812 144.800781 1274.824219 133.070312 1292.675781 C 122.136719 1309.191406 117.871094 1328.109375 116.269531 1347.558594 C 114.671875 1363.8125 116.269531 1379.796875 117.335938 1395.78125 C 118.40625 1414.964844 119.203125 1434.414062 120.269531 1453.597656 C 120.269531 1456.527344 120.003906 1459.460938 119.738281 1462.390625 C 119.203125 1471.183594 114.40625 1476.777344 106.40625 1479.972656 C 98.40625 1483.171875 89.609375 1484.238281 81.074219 1483.4375 C 70.410156 1482.371094 59.742188 1480.507812 49.078125 1479.707031 C 35.480469 1478.640625 21.882812 1478.640625 8.28125 1478.109375 C 7.484375 1478.109375 6.683594 1478.109375 5.882812 1478.375 C -4.515625 1482.640625 -16.246094 1478.109375 -21.3125 1467.984375 C -24.511719 1460.523438 -21.046875 1449.601562 -13.046875 1444.539062 C -8.515625 1442.140625 -3.449219 1440.011719 1.351562 1438.144531 C 2.417969 1437.347656 3.75 1437.078125 4.816406 1436.8125 Z M 164.800781 1242.320312 L 164.265625 1241.785156 C 161.867188 1243.386719 159.464844 1244.71875 156.800781 1246.050781 C 141.335938 1254.042969 125.871094 1262.300781 110.40625 1270.5625 C 109.070312 1271.09375 108.003906 1272.160156 107.207031 1273.492188 C 99.738281 1290.011719 92.273438 1306.527344 85.074219 1323.046875 C 78.140625 1339.035156 70.941406 1354.753906 60.277344 1368.605469 C 54.144531 1376.867188 46.414062 1383.792969 37.613281 1388.855469 C 33.613281 1391.519531 28.8125 1392.320312 24.28125 1391.519531 C 16.28125 1389.386719 12.28125 1383.527344 10.417969 1376.066406 C 8.015625 1366.476562 10.417969 1357.152344 14.683594 1348.625 C 25.882812 1324.644531 43.210938 1306.796875 65.34375 1293.472656 C 78.140625 1285.746094 91.472656 1279.085938 104.539062 1271.625 C 105.871094 1271.09375 106.9375 1270.027344 107.472656 1268.429688 C 109.605469 1262.300781 111.207031 1256.175781 112.273438 1250.046875 C 113.871094 1240.1875 107.207031 1230.863281 97.339844 1229.53125 C 94.671875 1229 91.742188 1229.265625 89.074219 1230.0625 C 83.742188 1231.929688 78.675781 1234.59375 74.410156 1238.058594 C 69.875 1241.519531 65.609375 1245.25 61.878906 1249.511719 C 50.410156 1261.503906 39.214844 1273.492188 28.015625 1285.746094 C 15.75 1298.800781 6.949219 1314.523438 -3.183594 1329.441406 C -11.179688 1341.699219 -17.582031 1354.753906 -22.378906 1368.339844 C -25.847656 1377.664062 -27.179688 1387.523438 -26.378906 1397.113281 C -26.113281 1403.507812 -23.445312 1409.371094 -18.914062 1413.898438 C -11.449219 1421.625 -3.183594 1428.289062 5.882812 1433.882812 C 7.484375 1435.214844 9.882812 1435.480469 11.75 1434.679688 C 26.949219 1430.417969 42.679688 1428.554688 58.410156 1428.820312 C 64.277344 1428.289062 69.875 1429.886719 74.941406 1433.082031 C 80.007812 1437.078125 80.273438 1442.675781 74.675781 1446.40625 C 71.742188 1448.535156 68.542969 1449.867188 65.078125 1450.132812 C 57.609375 1450.667969 49.878906 1450.667969 42.414062 1449.867188 C 30.949219 1448.800781 20.546875 1444.007812 10.683594 1438.945312 C 9.617188 1438.410156 8.28125 1437.613281 7.484375 1437.878906 C 1.082031 1439.742188 -5.046875 1442.140625 -11.179688 1445.074219 C -18.378906 1449.070312 -21.847656 1457.0625 -19.980469 1465.054688 C -18.113281 1471.714844 -9.316406 1477.84375 -1.582031 1477.84375 C -0.515625 1477.84375 0.285156 1477.578125 1.351562 1477.042969 C 2.417969 1476.511719 3.484375 1475.710938 4.550781 1475.710938 C 19.75 1476.246094 34.945312 1476.246094 50.144531 1477.308594 C 60.8125 1477.84375 71.210938 1479.972656 81.875 1480.773438 C 90.675781 1481.839844 99.738281 1480.507812 107.738281 1476.777344 C 113.605469 1474.378906 117.335938 1469.050781 117.871094 1462.65625 C 118.40625 1458.925781 118.671875 1455.195312 118.40625 1451.464844 C 117.605469 1433.082031 116.539062 1414.699219 115.472656 1396.316406 C 114.671875 1379.53125 112.804688 1363.011719 114.40625 1346.226562 C 116.269531 1326.511719 121.070312 1307.59375 131.734375 1290.542969 C 138.136719 1279.886719 145.066406 1269.761719 152 1259.636719 C 156 1253.777344 160.53125 1248.179688 164.800781 1242.320312 Z M 104.804688 1274.292969 L 104.273438 1273.757812 C 92.273438 1280.417969 80.273438 1287.078125 68.277344 1293.742188 C 53.34375 1302.53125 40.28125 1313.988281 29.613281 1327.84375 C 21.347656 1338.5 14.414062 1349.957031 12.28125 1363.8125 C 10.949219 1371.804688 12.28125 1379.53125 18.148438 1385.660156 C 21.347656 1389.386719 26.414062 1390.722656 30.945312 1389.386719 C 37.078125 1387.523438 42.945312 1384.058594 47.480469 1379.53125 C 58.675781 1369.40625 67.476562 1357.152344 73.609375 1343.5625 C 84.273438 1321.183594 94.140625 1298.269531 104.273438 1275.890625 C 104.539062 1275.355469 104.804688 1274.824219 104.804688 1274.292969 Z M 174.664062 1232.195312 L 175.199219 1232.726562 C 175.996094 1232.195312 177.066406 1231.664062 177.863281 1231.128906 C 192.261719 1221.003906 206.660156 1211.148438 220.792969 1201.023438 C 227.460938 1196.226562 233.859375 1190.898438 239.722656 1185.039062 C 246.125 1178.910156 252.257812 1172.515625 257.855469 1165.589844 C 262.386719 1160.257812 266.121094 1154.398438 269.320312 1148.003906 C 273.054688 1141.078125 271.1875 1134.148438 266.65625 1128.019531 C 264.253906 1124.824219 263.1875 1124.824219 260.253906 1127.753906 C 253.589844 1134.683594 246.921875 1141.609375 240.523438 1148.535156 C 234.125 1155.464844 228.257812 1162.125 222.660156 1169.316406 C 211.195312 1184.503906 199.996094 1199.691406 188.53125 1214.878906 C 184.265625 1220.738281 179.464844 1226.332031 174.664062 1232.195312 Z M 11.214844 1437.078125 C 27.214844 1446.9375 46.414062 1450.933594 65.078125 1448.535156 C 68.277344 1448.003906 71.210938 1446.671875 73.609375 1444.804688 C 76.277344 1443.472656 77.074219 1440.011719 75.476562 1437.613281 C 74.941406 1436.8125 74.410156 1436.28125 73.875 1435.746094 C 72.007812 1433.882812 69.34375 1432.816406 66.941406 1432.285156 C 59.476562 1431.75 52.011719 1431.484375 44.277344 1431.75 C 33.347656 1432.015625 22.148438 1433.882812 11.214844 1437.078125 Z M 11.214844 1437.078125 " fill-opacity="1" fill-rule="nonzero"/></svg>