<svg xmlns="http://www.w3.org/2000/svg" viewBox="0 0 1080 1080"><defs><style>.cls-1{fill:#fff;}</style></defs><g id="_2" data-name="2"><g id="_1" data-name="1"><path class="cls-1" d="M328.26,572.82V478.68a5,5,0,0,1,5.09-4.89H343a5,5,0,0,1,5.09,4.89v75.73a5,5,0,0,0,5.1,4.89h34.34a5,5,0,0,1,5.1,4.89v8.63a5,5,0,0,1-5.1,4.89H333.35A5,5,0,0,1,328.26,572.82Z"/><path class="cls-1" d="M421.69,544.6a2.37,2.37,0,0,0-2.37,2.93c3.12,11.68,13,16.52,22.42,16.52,6.15,0,14.39-2,20.62-4.61a2.44,2.44,0,0,1,3.41,2l.62,10.55a2.3,2.3,0,0,1-1.36,2.24,59.33,59.33,0,0,1-24.37,4.94c-28,0-41.9-17.66-41.9-38.45,0-20.63,13.29-38.45,37.11-38.45,19.48,0,34,12.62,34,32.22a43.47,43.47,0,0,1-.85,8.18,2.41,2.41,0,0,1-2.4,1.91Zm.68-12.47h25.42a2.38,2.38,0,0,0,2.43-2.65c-.86-6-4.72-12.05-13.73-12.05-8.63,0-14,4.74-16.42,11.56A2.36,2.36,0,0,0,422.37,532.13Z"/><path class="cls-1" d="M548.54,577.29a2.19,2.19,0,0,1-2.21,1.9h-5c-7.47,0-12.75-2.54-16-6.57a2.27,2.27,0,0,0-3.18-.33c-5.31,4.43-13.58,6.9-21.85,6.9C488,579.19,478,571,478,556.92c0-19.88,26.09-25.56,41.16-26.47a2.14,2.14,0,0,0,2.06-2.44c-1-6.81-4.76-9.83-13.69-9.83-6.14,0-11.56,1.38-18.38,4.37a2.24,2.24,0,0,1-3.14-1.71l-1.19-10.5a2.12,2.12,0,0,1,1.3-2.18,65.41,65.41,0,0,1,26.67-5.87c17.32,0,28,8.32,28,29.84v20c0,11.14,1.24,11.88,6.81,11.88h0a2.16,2.16,0,0,1,2.2,2.36Zm-27-32.18a2.2,2.2,0,0,0-2.46-2.13c-10.19.93-21.05,5.1-21.05,13.2,0,6.09,3.09,8.91,10.36,8.91a21.41,21.41,0,0,0,12.37-4.67,2.11,2.11,0,0,0,.78-1.62Z"/><path class="cls-1" d="M600.58,517.55a2.72,2.72,0,0,1-2.7,2.11H593c-6,0-11.3,2.92-13.69,6.75a2.53,2.53,0,0,0-.39,1.36v47.29a2.7,2.7,0,0,1-2.75,2.65H562.53a2.71,2.71,0,0,1-2.76-2.65V506.13a2.7,2.7,0,0,1,2.76-2.65H575.1a2.7,2.7,0,0,1,2.75,2.5h0a2.77,2.77,0,0,0,4.39,2c4.26-3,10.09-5.66,16.5-5.66h1.72a2.68,2.68,0,0,1,2.7,3.18Z"/><path class="cls-1" d="M664.47,577.71a1.73,1.73,0,0,1-1.76-1.69V537.77c0-13.8-4.49-20.34-15.31-20.34a18.15,18.15,0,0,0-14.1,5.91,1.66,1.66,0,0,0-.44,1.12V576a1.73,1.73,0,0,1-1.76,1.69H615.45a1.73,1.73,0,0,1-1.76-1.69V505.17a1.73,1.73,0,0,1,1.76-1.69H630a1.74,1.74,0,0,1,1.76,1.58h0a1.77,1.77,0,0,0,2.64,1.35A31,31,0,0,1,649,502.29c24.12,0,32.93,14.55,32.93,35.48V576a1.73,1.73,0,0,1-1.76,1.69Z"/><path class="cls-1" d="M720.38,613.64H707.06a2.63,2.63,0,0,1-2.53-3.6l15.22-36.2a2.57,2.57,0,0,0,0-2.05l-30-64.63a2.63,2.63,0,0,1,2.49-3.68h15.3a2.72,2.72,0,0,1,2.53,1.65l16.6,40.08a2.77,2.77,0,0,0,5.06,0l16.86-40.1a2.74,2.74,0,0,1,2.53-1.64h15.39a2.63,2.63,0,0,1,2.52,3.63L722.89,612A2.72,2.72,0,0,1,720.38,613.64Z"/><path class="cls-1" d="M781.12,572.43V479.07a5.39,5.39,0,0,1,5.5-5.28h8.79a5.39,5.39,0,0,1,5.5,5.28V554a5.4,5.4,0,0,0,5.5,5.28h33.53a5.4,5.4,0,0,1,5.51,5.28v7.85a5.4,5.4,0,0,1-5.51,5.28H786.62A5.4,5.4,0,0,1,781.12,572.43Z"/><path class="cls-1" d="M856.39,488.82V477.17a3.45,3.45,0,0,1,3.52-3.38h12.14a3.45,3.45,0,0,1,3.52,3.38v11.65a3.46,3.46,0,0,1-3.52,3.38H859.91A3.46,3.46,0,0,1,856.39,488.82Zm0,85.51V506.86a3.45,3.45,0,0,1,3.52-3.38h12.14a3.45,3.45,0,0,1,3.52,3.38v67.47a3.45,3.45,0,0,1-3.52,3.38H859.91A3.45,3.45,0,0,1,856.39,574.33Z"/><path class="cls-1" d="M907.43,576.23h0a1.63,1.63,0,0,1-1.65,1.48H891a1.63,1.63,0,0,1-1.66-1.59V468a1.64,1.64,0,0,1,1.66-1.59H906.9a1.63,1.63,0,0,1,1.66,1.59v36.43a1.66,1.66,0,0,0,2.44,1.4c4.25-2.24,8.92-3.49,15.65-3.49,24.74,0,37.89,17.67,37.89,38.45s-13.15,38.45-37.89,38.45c-7.28,0-12.07-1.52-16.7-4.2A1.67,1.67,0,0,0,907.43,576.23Zm.2-35.49c0,13.81,5.41,23.31,17.79,23.31s19.48-9.5,19.48-23.31-7.11-23.31-19.48-23.31S907.63,526.94,907.63,540.74Z"/><path class="cls-1" d="M120.54,473H243.69a5,5,0,0,1,5.07,4.88v13.65a5,5,0,0,1-5.07,4.87H144.15a5,5,0,0,0-5.07,4.88v42.9A5,5,0,0,1,134,549H120.54a5,5,0,0,1-5.08-4.88v-66.3A5,5,0,0,1,120.54,473Z"/><path class="cls-1" d="M244,578H120.24a4.69,4.69,0,0,1-4.78-4.59V559.21a4.68,4.68,0,0,1,4.78-4.58H220.37a4.69,4.69,0,0,0,4.78-4.59V506.56a4.69,4.69,0,0,1,4.78-4.59H244a4.69,4.69,0,0,1,4.77,4.59v66.88A4.69,4.69,0,0,1,244,578Z"/></g></g></svg>