<svg xmlns="http://www.w3.org/2000/svg" viewBox="0 0 1080 1080"><defs><style>.cls-1{fill:#fff;}</style></defs><g id="_2" data-name="2"><g id="_2-2" data-name="2"><path class="cls-1" d="M221.86,572.82V478.68a5,5,0,0,1,5.1-4.89h9.6a5,5,0,0,1,5.09,4.89v75.73a5,5,0,0,0,5.1,4.89h34.34a5,5,0,0,1,5.1,4.89v8.63a5,5,0,0,1-5.1,4.89H227A5,5,0,0,1,221.86,572.82Z"/><path class="cls-1" d="M315.29,544.6a2.37,2.37,0,0,0-2.37,2.93c3.12,11.68,13,16.52,22.43,16.52,6.14,0,14.38-2,20.61-4.61a2.44,2.44,0,0,1,3.41,2L360,572a2.32,2.32,0,0,1-1.37,2.24,59.33,59.33,0,0,1-24.37,4.94c-28,0-41.9-17.66-41.9-38.45,0-20.63,13.3-38.45,37.11-38.45,19.48,0,34,12.62,34,32.22a43.47,43.47,0,0,1-.85,8.18,2.41,2.41,0,0,1-2.4,1.91Zm.68-12.47h25.42a2.38,2.38,0,0,0,2.43-2.65c-.85-6-4.72-12.05-13.73-12.05-8.63,0-14,4.74-16.42,11.56A2.37,2.37,0,0,0,316,532.13Z"/><path class="cls-1" d="M442.14,577.29a2.18,2.18,0,0,1-2.2,1.9h-5c-7.47,0-12.75-2.54-16-6.57a2.27,2.27,0,0,0-3.18-.33c-5.31,4.43-13.58,6.9-21.85,6.9-12.37,0-22.42-8.16-22.42-22.27,0-19.88,26.09-25.56,41.16-26.47A2.16,2.16,0,0,0,414.8,528c-1-6.81-4.76-9.83-13.69-9.83-6.15,0-11.57,1.38-18.39,4.37a2.24,2.24,0,0,1-3.14-1.71l-1.19-10.5a2.13,2.13,0,0,1,1.3-2.18,65.41,65.41,0,0,1,26.67-5.87c17.32,0,28,8.32,28,29.84v20c0,11.14,1.24,11.88,6.81,11.88h0a2.17,2.17,0,0,1,2.21,2.36Zm-27-32.18a2.2,2.2,0,0,0-2.46-2.13c-10.19.93-21.05,5.1-21.05,13.2,0,6.09,3.1,8.91,10.36,8.91a21.39,21.39,0,0,0,12.37-4.67,2.11,2.11,0,0,0,.78-1.62Z"/><path class="cls-1" d="M494.18,517.55a2.72,2.72,0,0,1-2.7,2.11h-4.86c-6,0-11.3,2.92-13.69,6.75a2.61,2.61,0,0,0-.38,1.36v47.29a2.71,2.71,0,0,1-2.76,2.65H456.13a2.71,2.71,0,0,1-2.76-2.65V506.13a2.7,2.7,0,0,1,2.76-2.65H468.7a2.71,2.71,0,0,1,2.76,2.5h0a2.76,2.76,0,0,0,4.38,2c4.26-3,10.09-5.66,16.5-5.66h1.72a2.68,2.68,0,0,1,2.7,3.18Z"/><path class="cls-1" d="M558.07,577.71a1.73,1.73,0,0,1-1.76-1.69V537.77c0-13.8-4.48-20.34-15.31-20.34a18.15,18.15,0,0,0-14.1,5.91,1.65,1.65,0,0,0-.43,1.12V576a1.73,1.73,0,0,1-1.77,1.69H509.05a1.73,1.73,0,0,1-1.76-1.69V505.17a1.73,1.73,0,0,1,1.76-1.69h14.53a1.73,1.73,0,0,1,1.76,1.58h0a1.77,1.77,0,0,0,2.64,1.35,31,31,0,0,1,14.57-4.12c24.12,0,32.94,14.55,32.94,35.48V576a1.73,1.73,0,0,1-1.77,1.69Z"/><path class="cls-1" d="M614,613.64H600.66a2.64,2.64,0,0,1-2.53-3.6l15.22-36.2a2.52,2.52,0,0,0,0-2.05l-30-64.63a2.62,2.62,0,0,1,2.49-3.68h15.29a2.72,2.72,0,0,1,2.53,1.65l16.6,40.08a2.77,2.77,0,0,0,5.06,0l16.87-40.1a2.71,2.71,0,0,1,2.52-1.64h15.39a2.63,2.63,0,0,1,2.52,3.63L616.5,612A2.74,2.74,0,0,1,614,613.64Z"/><path class="cls-1" d="M674.72,572.43V479.07a5.39,5.39,0,0,1,5.5-5.28H689a5.39,5.39,0,0,1,5.5,5.28V554a5.4,5.4,0,0,0,5.5,5.28h33.53a5.4,5.4,0,0,1,5.51,5.28v7.85a5.4,5.4,0,0,1-5.51,5.28H680.22A5.4,5.4,0,0,1,674.72,572.43Z"/><path class="cls-1" d="M750,488.82V477.17a3.45,3.45,0,0,1,3.52-3.38h12.14a3.45,3.45,0,0,1,3.52,3.38v11.65a3.46,3.46,0,0,1-3.52,3.38H753.51A3.46,3.46,0,0,1,750,488.82Zm0,85.51V506.86a3.45,3.45,0,0,1,3.52-3.38h12.14a3.45,3.45,0,0,1,3.52,3.38v67.47a3.45,3.45,0,0,1-3.52,3.38H753.51A3.45,3.45,0,0,1,750,574.33Z"/><path class="cls-1" d="M801,576.23h0a1.63,1.63,0,0,1-1.65,1.48H784.64a1.62,1.62,0,0,1-1.65-1.59V468a1.63,1.63,0,0,1,1.65-1.59H800.5a1.63,1.63,0,0,1,1.66,1.59v36.43a1.66,1.66,0,0,0,2.44,1.4c4.25-2.24,8.92-3.49,15.65-3.49,24.75,0,37.89,17.67,37.89,38.45S845,579.19,820.25,579.19c-7.28,0-12.07-1.52-16.7-4.2A1.67,1.67,0,0,0,801,576.23Zm.2-35.49c0,13.81,5.42,23.31,17.79,23.31s19.48-9.5,19.48-23.31-7.11-23.31-19.48-23.31S801.23,526.94,801.23,540.74Z"/></g></g></svg>